<svg width="32" height="32" viewBox="0 0 225 225" fill="none" xmlns="http://www.w3.org/2000/svg">
<path d="M53.7352 13.5287L170.699 13.5284L170.701 40.5002L161.686 40.5095L161.661 85.4801L152.671 85.4962C152.605 88.4297 152.637 91.5348 152.624 94.4818L143.623 94.497C143.566 97.4384 143.596 100.52 143.585 103.471L134.845 103.496C134.806 109.486 134.805 115.476 134.842 121.466L143.857 121.499L143.873 130.461L152.629 130.501L152.618 139.462L161.661 139.5L161.661 184.453L170.698 184.487L170.709 211.453C157.735 211.618 144.458 211.462 131.448 211.462L53.7095 211.458L53.7417 184.485L62.7473 184.43L62.7789 139.497L71.7851 139.44L71.8187 130.501L80.5387 130.438L80.5766 121.492L89.5782 121.438L89.5669 103.504L80.5336 103.491L80.5305 94.5049L71.7871 94.4885L71.7972 85.5125L62.7473 85.4914L62.7558 40.5247L53.7095 40.503L53.7352 13.5287Z" fill="black"/>
<path d="M107.732 103.528C110.735 103.55 113.738 103.551 116.74 103.532L116.709 121.52L125.7 121.533L125.705 130.507L134.696 130.521L134.699 139.494L143.698 139.506L143.707 148.482L152.696 148.489L152.709 184.388C125.935 184.691 98.5988 184.409 71.7758 184.409C71.6532 172.525 71.7283 160.374 71.7806 148.483L80.7583 148.441L80.7822 139.5L89.7593 139.471L89.7809 130.512L98.758 130.471L98.7794 121.526L107.755 121.495L107.732 103.528Z" fill="white"/>
<path d="M107.736 130.528L116.709 130.529L116.709 139.497C113.733 139.54 110.692 139.519 107.709 139.528L107.736 130.528Z" fill="black"/>
<path d="M71.8062 40.5284L152.7 40.5422L152.709 76.4803L143.748 76.5318L143.711 85.4809L134.751 85.5321L134.713 94.4792L125.755 94.5318L125.718 103.482L116.754 103.515C113.752 103.534 110.75 103.533 107.749 103.511L98.7902 103.508L98.7725 94.5405L89.7938 94.5076L89.7761 85.5386L80.7981 85.5068L80.781 76.5377L71.8081 76.5132C71.7755 64.7197 71.6046 52.2975 71.8062 40.5284Z" fill="white"/>
<path d="M107.729 94.5284L116.709 94.5324L116.699 103.515C113.705 103.534 110.711 103.533 107.717 103.511C107.704 100.517 107.708 97.5226 107.729 94.5284Z" fill="black"/>
<path d="M98.7432 49.529L107.738 49.5309L107.728 58.5139L116.708 58.5089C116.696 55.5156 116.7 52.522 116.72 49.5284L125.716 49.5312L125.705 58.5148L134.685 58.5035L134.709 67.4924C131.892 67.5079 128.465 67.6204 125.695 67.5045L125.722 76.4928C122.988 76.5072 119.369 76.6239 116.708 76.5063L116.726 85.502L107.694 85.5284L107.728 76.5145L98.7069 76.5255L98.7404 67.5124L89.7095 67.5217L89.7491 58.5165L98.732 58.5097C98.7193 55.5161 98.723 52.5226 98.7432 49.529Z" fill="white"/>
<path d="M98.7287 49.5284L107.709 49.5304L107.699 58.517C107.692 61.4026 107.618 64.6577 107.687 67.518L98.7259 67.5191L89.7095 67.5284L89.749 58.5195L98.7175 58.5128C98.7049 55.518 98.7085 52.5232 98.7287 49.5284Z" fill="black"/>
<path d="M89.7489 58.5352L98.7011 58.5284L98.7095 67.5191L89.7095 67.5284L89.7489 58.5352Z" fill="black"/>
<path d="M98.7095 58.5284C101.653 58.5349 104.782 58.592 107.709 58.5326C107.702 61.4162 107.628 64.669 107.697 67.5273L98.7179 67.5284L98.7095 58.5284Z" fill="white"/>
<path d="M116.728 49.5284L125.72 49.5312L125.709 58.5009L134.685 58.4896L134.709 67.4646C131.893 67.4801 128.468 67.5924 125.699 67.4767L116.727 67.4834L116.716 58.495C116.704 55.5063 116.708 52.5174 116.728 49.5284Z" fill="white"/>
<path d="M116.728 49.5284L125.709 49.5312L125.698 58.5049C122.777 58.5586 119.651 58.5043 116.716 58.499C116.704 55.509 116.708 52.5187 116.728 49.5284Z" fill="black"/>
<path d="M125.751 58.5396L134.685 58.5284L134.709 67.4649C131.906 67.4803 128.497 67.5921 125.741 67.4769C125.668 64.6448 125.743 61.3985 125.751 58.5396Z" fill="black"/>
<path d="M107.751 58.5335L116.699 58.5284L116.709 67.5027C113.755 67.5568 110.701 67.5097 107.739 67.5027C107.67 64.6525 107.744 61.4089 107.751 58.5335Z" fill="black"/>
<path d="M107.743 76.5366L116.692 76.5284L116.709 85.502L107.709 85.5284L107.743 76.5366Z" fill="black"/>
<path d="M98.7428 67.5295L107.698 67.5284L107.709 76.5175L98.7095 76.5284L98.7428 67.5295Z" fill="black"/>
<path d="M116.75 67.5351L125.683 67.5284L125.709 76.4633C122.989 76.4776 119.387 76.5936 116.739 76.4768C116.669 73.6366 116.743 70.4005 116.75 67.5351Z" fill="black"/>
<path d="M80.7411 49.5284L89.7095 49.5318L89.6977 58.5233L80.7095 58.5284L80.7411 49.5284Z" fill="black"/>
<path d="M134.729 49.5284L143.709 49.5323L143.698 58.4783C140.975 58.4853 137.379 58.5866 134.717 58.4797C134.704 55.4959 134.708 52.5122 134.729 49.5284Z" fill="black"/>
<path d="M71.7319 193.528L152.7 193.544L152.709 202.383C125.938 202.692 98.5533 202.414 71.7389 202.405C71.6795 199.49 71.7276 196.453 71.7319 193.528Z" fill="white"/>
<path d="M71.7355 22.5284L152.698 22.5443L152.709 31.3825C125.936 31.6941 98.5605 31.4108 71.7394 31.4033C71.6781 28.4898 71.729 25.452 71.7355 22.5284Z" fill="white"/>
</svg>
