<?xml version="1.0" encoding="UTF-8" standalone="no"?>
<!DOCTYPE svg PUBLIC "-//W3C//DTD SVG 1.1//EN" "http://www.w3.org/Graphics/SVG/1.1/DTD/svg11.dtd">
<svg width="178" height="177" viewBox="0 0 178 177" version="1.1" xmlns="http://www.w3.org/2000/svg" xmlns:xlink="http://www.w3.org/1999/xlink" xml:space="preserve" xmlns:serif="http://www.serif.com/" style="fill-rule:evenodd;clip-rule:evenodd;stroke-miterlimit:1.5;">
    <g transform="matrix(1,0,0,1,-457.019775,-1787.398101)">
        <g transform="matrix(0.5392,0,0,1,138.471406,11.412339)">
            <path d="M620.881,1852.182L620.881,1834.027L631.033,1834.027L631.033,1822.136L643.921,1822.136L643.921,1816.285L654.072,1816.285L654.072,1810.339L665.486,1810.339L665.486,1804.151L675.768,1804.151L675.768,1798.253L698.808,1798.253L698.808,1792.473L732.5,1792.473L732.5,1786.103L778.754,1786.103L778.754,1792.473L812.446,1792.473L812.446,1798.253L835.486,1798.253L835.486,1804.151L845.768,1804.151L845.768,1810.339L857.181,1810.339L857.181,1816.285L867.332,1816.285L867.332,1822.136L880.221,1822.136L880.221,1834.027L890.372,1834.027L890.372,1852.182L901.711,1852.182L901.711,1876.664L890.372,1876.664L890.372,1894.819L880.221,1894.819L880.221,1906.71L867.332,1906.71L867.332,1912.561L857.181,1912.561L857.181,1918.506L845.768,1918.506L845.768,1924.694L835.486,1924.694L835.486,1930.593L812.446,1930.593L812.446,1936.373L778.754,1936.373L778.754,1942.743L732.5,1942.743L732.5,1936.373L698.808,1936.373L698.808,1930.593L675.768,1930.593L675.768,1924.694L665.486,1924.694L665.486,1918.506L654.072,1918.506L654.072,1912.561L643.921,1912.561L643.921,1906.71L631.033,1906.71L631.033,1894.819L620.881,1894.819L620.881,1876.664L609.542,1876.664L609.542,1852.182L620.881,1852.182Z" style="fill:rgb(230,76,60);stroke:rgb(241,241,241);stroke-width:13.97px;"/>
        </g>
    </g>
</svg>
