<?xml version="1.0" encoding="UTF-8" standalone="no"?>
<!DOCTYPE svg PUBLIC "-//W3C//DTD SVG 1.1//EN" "http://www.w3.org/Graphics/SVG/1.1/DTD/svg11.dtd">
<svg width="100%" height="100%" viewBox="0 0 338 93" version="1.1" xmlns="http://www.w3.org/2000/svg" xmlns:xlink="http://www.w3.org/1999/xlink" xml:space="preserve" xmlns:serif="http://www.serif.com/" style="fill-rule:evenodd;clip-rule:evenodd;stroke-linejoin:round;stroke-miterlimit:2;">
    <g transform="matrix(1,0,0,1,-371.372,-334.585)">
        <g transform="matrix(1,0,0,0.450999,0,0)">
            <g transform="matrix(10.2638,0,-1.87083,22.758,-2637.95,-8917.25)">
                <path d="M372.199,433.428L372.199,432.678L372.949,432.678L372.949,428.928L372.199,428.928L372.199,428.178L372.949,428.178L372.949,425.178L373.699,425.178L373.699,428.178L375.199,428.178L375.199,428.928L373.699,428.928L373.699,432.678L374.449,432.678L374.449,433.428L372.199,433.428ZM375.199,426.678L375.199,425.178L375.949,425.178L375.949,426.678L375.199,426.678ZM373.699,425.178L373.699,424.428L375.199,424.428L375.199,425.178L373.699,425.178Z" style="fill:white;fill-rule:nonzero;"/>
                <path d="M376.699,432.678L376.699,430.428L377.449,430.428L377.449,432.678L376.699,432.678ZM377.449,433.428L377.449,432.678L379.699,432.678L379.699,430.428L377.449,430.428L377.449,429.678L379.699,429.678L379.699,428.928L380.449,428.928L380.449,432.678L381.199,432.678L381.199,433.428L377.449,433.428ZM377.449,428.928L377.449,428.178L379.699,428.178L379.699,428.928L377.449,428.928Z" style="fill:white;fill-rule:nonzero;"/>
                <path d="M381.949,433.428L381.949,432.678L382.699,432.678L382.699,428.178L383.449,428.178L383.449,432.678L384.199,432.678L384.199,433.428L381.949,433.428ZM382.699,427.428L382.699,426.678L383.449,426.678L383.449,427.428L382.699,427.428Z" style="fill:white;fill-rule:nonzero;"/>
                <path d="M384.949,433.428L384.949,432.678L385.699,432.678L385.699,428.928L384.949,428.928L384.949,428.178L388.651,428.178L388.651,429.678L387.901,429.678L387.901,428.928L386.449,428.928L386.449,432.678L387.199,432.678L387.199,433.428L384.949,433.428Z" style="fill:white;fill-rule:nonzero;"/>
            </g>
        </g>
        <g transform="matrix(1,0,0,0.450999,0,0)">
            <g transform="matrix(16.3574,0,-2.97264,36.2692,-8432.94,-15472.2)">
                <path d="M632.816,452.695L632.816,451.945L635.066,451.945L635.066,452.695L632.816,452.695ZM632.066,451.945L632.066,448.195L632.816,448.195L632.816,451.945L632.066,451.945ZM635.066,451.945L635.066,448.195L635.816,448.195L635.816,451.945L635.066,451.945ZM632.816,448.195L632.816,447.445L635.066,447.445L635.066,448.195L632.816,448.195Z" style="fill:url(#_Linear1);fill-rule:nonzero;"/>
                <path d="M637.316,452.695L637.316,451.945L639.566,451.945L639.566,452.695L637.316,452.695ZM636.566,451.945L636.566,451.195L637.316,451.195L637.316,451.945L636.566,451.945ZM639.566,451.945L639.566,450.445L640.316,450.445L640.316,451.945L639.566,451.945ZM637.316,450.445L637.316,449.695L639.566,449.695L639.566,450.445L637.316,450.445ZM636.566,449.695L636.566,448.195L637.316,448.195L637.316,449.695L636.566,449.695ZM639.566,448.945L639.566,448.195L640.316,448.195L640.316,448.945L639.566,448.945ZM637.316,448.195L637.316,447.445L639.566,447.445L639.566,448.195L637.316,448.195Z" style="fill:url(#_Linear2);fill-rule:nonzero;"/>
            </g>
        </g>
    </g>
    <defs>
        <linearGradient id="_Linear1" x1="0" y1="0" x2="1" y2="0" gradientUnits="userSpaceOnUse" gradientTransform="matrix(6.54072,3.70566,-2.63939,5.86729,633.038,448.433)"><stop offset="0" style="stop-color:rgb(79,197,234);stop-opacity:1"/><stop offset="1" style="stop-color:rgb(82,187,70);stop-opacity:1"/></linearGradient>
        <linearGradient id="_Linear2" x1="0" y1="0" x2="1" y2="0" gradientUnits="userSpaceOnUse" gradientTransform="matrix(6.54072,3.70566,-2.63939,5.86729,633.038,448.433)"><stop offset="0" style="stop-color:rgb(79,197,234);stop-opacity:1"/><stop offset="1" style="stop-color:rgb(82,187,70);stop-opacity:1"/></linearGradient>
    </defs>
</svg>
