<?xml version="1.0" encoding="UTF-8" standalone="no"?>
<!DOCTYPE svg PUBLIC "-//W3C//DTD SVG 1.1//EN" "http://www.w3.org/Graphics/SVG/1.1/DTD/svg11.dtd">
<svg width="100%" height="100%" viewBox="0 0 662 662" version="1.1" xmlns="http://www.w3.org/2000/svg" xmlns:xlink="http://www.w3.org/1999/xlink" xml:space="preserve" xmlns:serif="http://www.serif.com/" style="fill-rule:evenodd;clip-rule:evenodd;stroke-linecap:round;stroke-linejoin:round;stroke-miterlimit:22.926;">
    <g transform="matrix(1,0,0,1,2561.69495,-9208.312751)">
        <g transform="matrix(1,0,0,1,-1747.77125,110.761007)">
            <g transform="matrix(20.032817,0,0,-20.032817,-3925.784913,22438.978914)">
                <path d="M170.965,657.048C171.559,657.133 172.168,657.114 172.766,657.063C173.789,656.922 174.797,656.602 175.684,656.075C177.328,655.118 178.602,653.528 179.133,651.696C178.027,651.7 176.922,651.696 175.816,651.7C175.805,651.723 175.773,651.774 175.762,651.798C175.609,652.059 175.426,652.301 175.223,652.52C174.789,652.997 174.246,653.383 173.652,653.637C173.117,653.864 172.535,653.997 171.949,653.989C170.68,654.032 169.422,653.465 168.566,652.536C167.898,651.825 167.477,650.887 167.387,649.919C167.352,649.38 167.371,648.825 167.523,648.301C167.953,646.68 169.359,645.368 171.012,645.059C171.266,644.993 171.527,645.008 171.781,644.973C172.723,644.954 173.672,645.227 174.445,645.77C175.027,646.176 175.523,646.712 175.852,647.337L179.117,647.337C179.094,647.27 179.074,647.204 179.055,647.137C178.57,645.727 177.672,644.462 176.484,643.559C176.043,643.219 175.559,642.926 175.051,642.688C174.367,642.383 173.645,642.165 172.902,642.063C172.223,641.977 171.543,641.977 170.863,642.059C169.656,642.235 168.488,642.696 167.492,643.407C166.629,644.032 165.891,644.833 165.355,645.755C165.27,645.883 165.207,646.02 165.129,646.153C165.039,646.329 164.973,646.508 164.891,646.684C164.836,646.801 164.801,646.926 164.754,647.044C164.586,647.508 164.473,647.989 164.391,648.477C164.301,649.196 164.301,649.922 164.398,650.645C164.621,652.098 165.262,653.489 166.254,654.579C167.078,655.505 168.137,656.227 169.309,656.645C169.84,656.848 170.398,656.977 170.965,657.048" style="fill:white;fill-rule:nonzero;"/>
            </g>
            <g transform="matrix(20.032817,0,0,20.005112,-3925.784913,22448.198123)">
                <path d="M170.965,-658.418C170.398,-658.348 169.84,-658.219 169.309,-658.016C168.137,-657.597 167.078,-656.873 166.254,-655.946C165.262,-654.855 164.621,-653.462 164.398,-652.007C164.301,-651.284 164.301,-650.556 164.391,-649.836C164.473,-649.347 164.586,-648.866 164.754,-648.401C164.801,-648.283 164.836,-648.158 164.891,-648.041C164.973,-647.865 165.039,-647.685 165.129,-647.509C165.207,-647.376 165.27,-647.239 165.355,-647.11C165.891,-646.187 166.629,-645.385 167.492,-644.759C168.488,-644.047 169.656,-643.585 170.863,-643.409C171.543,-643.327 172.223,-643.327 172.902,-643.413C173.645,-643.515 174.367,-643.734 175.051,-644.039C175.559,-644.278 176.043,-644.571 176.484,-644.911C177.672,-645.815 178.57,-647.082 179.055,-648.495C179.074,-648.561 179.094,-648.628 179.117,-648.694L175.852,-648.694C175.523,-648.068 175.027,-647.532 174.445,-647.125C173.672,-646.582 172.723,-646.308 171.781,-646.327C171.527,-646.363 171.266,-646.347 171.012,-646.414C169.359,-646.723 167.953,-648.037 167.523,-649.66C167.371,-650.184 167.352,-650.74 167.387,-651.28C167.477,-652.25 167.898,-653.189 168.566,-653.9C169.422,-654.831 170.68,-655.399 171.949,-655.356C172.535,-655.363 173.117,-655.23 173.652,-655.004C174.246,-654.749 174.789,-654.362 175.223,-653.885C175.426,-653.666 175.609,-653.423 175.762,-653.161C175.773,-653.138 175.805,-653.087 175.816,-653.063C176.922,-653.059 178.027,-653.063 179.133,-653.059C178.602,-654.894 177.328,-656.486 175.684,-657.444C174.797,-657.972 173.789,-658.293 172.766,-658.434C172.168,-658.485 171.559,-658.504 170.965,-658.418ZM169.203,-666.832C170.066,-666.969 170.938,-667.059 171.816,-667.04C172.961,-667.063 174.113,-666.93 175.238,-666.699C177.066,-666.296 178.828,-665.592 180.418,-664.595C183.285,-662.807 185.578,-660.112 186.871,-656.995C187.391,-655.739 187.754,-654.421 187.941,-653.075C188.266,-650.802 188.102,-648.459 187.445,-646.257C187.379,-646.015 187.297,-645.78 187.219,-645.541C186.742,-644.168 186.078,-642.858 185.258,-641.661C185.219,-641.606 185.18,-641.551 185.145,-641.497C183.762,-639.533 181.941,-637.878 179.852,-636.693C179.574,-636.529 179.289,-636.38 179,-636.239C178.914,-636.188 178.82,-636.149 178.73,-636.106C178.344,-635.926 177.953,-635.758 177.559,-635.61C174.77,-634.553 171.684,-634.307 168.758,-634.87C165.566,-635.484 162.582,-637.104 160.309,-639.419C159.168,-640.573 158.199,-641.899 157.449,-643.335C156.855,-644.458 156.41,-645.651 156.094,-646.879C155.93,-647.528 155.812,-648.189 155.73,-648.854C155.461,-651.127 155.656,-653.462 156.355,-655.645C157.172,-658.258 158.672,-660.652 160.648,-662.537C162.984,-664.783 166.004,-666.308 169.203,-666.832ZM169.203,-666.832L169.203,-666.832" style="fill:none;fill-rule:nonzero;stroke:white;stroke-width:0.55px;"/>
            </g>
            <g transform="matrix(20.032817,0,0,20.005112,-3925.784913,22437.015265)">
                <path d="M169.789,-663.848C169.355,-663.766 168.922,-663.684 168.5,-663.567C168.25,-663.508 168.012,-663.418 167.766,-663.351C167.234,-663.168 166.707,-662.964 166.195,-662.722C166.125,-662.69 166.051,-662.659 165.98,-662.62C165.902,-662.581 165.824,-662.538 165.742,-662.503C163.004,-661.079 160.758,-658.716 159.516,-655.888C159.285,-655.376 159.086,-654.847 158.926,-654.312C158.398,-652.586 158.246,-650.756 158.414,-648.96C158.48,-648.421 158.57,-647.877 158.688,-647.341C158.844,-646.692 159.035,-646.05 159.285,-645.424C160.453,-642.42 162.73,-639.885 165.566,-638.356C165.641,-638.317 165.719,-638.282 165.797,-638.242C166.145,-638.055 166.508,-637.89 166.875,-637.746C167.355,-637.542 167.852,-637.39 168.348,-637.237C168.914,-637.092 169.48,-636.963 170.059,-636.877C170.316,-636.854 170.57,-636.815 170.828,-636.795C171.078,-636.756 171.332,-636.787 171.586,-636.744C171.816,-636.736 172.043,-636.736 172.27,-636.744C172.402,-636.772 172.535,-636.76 172.664,-636.768C173.09,-636.772 173.512,-636.838 173.93,-636.877C174.395,-636.956 174.859,-637.034 175.312,-637.163C175.418,-637.19 175.527,-637.218 175.633,-637.237C175.887,-637.323 176.141,-637.386 176.387,-637.48C176.91,-637.656 177.422,-637.867 177.918,-638.109C180.547,-639.381 182.738,-641.524 184.094,-644.11C184.117,-644.169 184.152,-644.231 184.184,-644.29C184.25,-644.427 184.32,-644.568 184.383,-644.708C184.539,-645.029 184.668,-645.362 184.793,-645.698C184.883,-645.929 184.953,-646.167 185.031,-646.402C185.074,-646.555 185.113,-646.707 185.168,-646.852C185.246,-647.181 185.324,-647.509 185.391,-647.842C185.406,-647.939 185.422,-648.037 185.441,-648.135C184.234,-648.131 183.035,-648.139 181.828,-648.135C181.535,-646.633 180.848,-645.221 179.91,-644.016C178.785,-642.569 177.258,-641.438 175.551,-640.785C172.879,-639.752 169.762,-639.936 167.238,-641.297C165.875,-642.017 164.68,-643.054 163.781,-644.302C162.84,-645.581 162.219,-647.087 161.969,-648.655C161.961,-648.679 161.953,-648.734 161.949,-648.761L161.992,-648.698L161.914,-648.882L161.953,-648.827C161.867,-649.305 161.848,-649.79 161.855,-650.271C161.84,-651.014 161.945,-651.757 162.105,-652.485C162.551,-654.394 163.562,-656.17 164.988,-657.511C165.961,-658.454 167.129,-659.189 168.395,-659.674C169.73,-660.175 171.168,-660.382 172.594,-660.304C172.609,-660.3 172.648,-660.292 172.668,-660.289C173.359,-660.261 174.035,-660.12 174.699,-659.944C176.293,-659.483 177.777,-658.63 178.965,-657.468C180.184,-656.295 181.109,-654.808 181.605,-653.189C181.688,-652.966 181.73,-652.727 181.801,-652.5C183.02,-652.504 184.242,-652.5 185.461,-652.5C185.449,-652.567 185.441,-652.637 185.43,-652.704C185.414,-652.782 185.402,-652.856 185.391,-652.931C185.352,-653.079 185.332,-653.232 185.297,-653.381C185.25,-653.56 185.207,-653.74 185.164,-653.916C185.113,-654.081 185.066,-654.241 185.016,-654.402C184.879,-654.859 184.711,-655.309 184.523,-655.751C183.145,-658.962 180.488,-661.603 177.262,-662.952C176.074,-663.461 174.812,-663.782 173.531,-663.942C173.383,-663.954 173.227,-663.95 173.078,-663.985C171.98,-664.075 170.875,-664.016 169.789,-663.848" style="fill:rgb(0,174,239);fill-rule:nonzero;stroke:rgb(0,174,239);stroke-width:0.55px;stroke-linecap:butt;stroke-linejoin:miter;stroke-miterlimit:10;"/>
            </g>
            <g transform="matrix(20.032817,0,0,-20.032817,-3925.784913,22436.995665)">
                <path d="M169.789,662.929C170.875,663.097 171.98,663.156 173.078,663.066C173.227,663.031 173.383,663.034 173.531,663.023C174.812,662.863 176.074,662.542 177.262,662.034C180.488,660.687 183.145,658.05 184.523,654.843C184.711,654.402 184.879,653.952 185.016,653.495C185.066,653.335 185.113,653.175 185.164,653.011C185.207,652.835 185.25,652.656 185.297,652.476C185.332,652.327 185.352,652.175 185.391,652.027C185.402,651.952 185.414,651.878 185.43,651.8C185.441,651.734 185.449,651.663 185.461,651.597C184.242,651.597 183.02,651.601 181.801,651.597C181.73,651.823 181.688,652.062 181.605,652.284C181.109,653.902 180.184,655.386 178.965,656.558C177.777,657.718 176.293,658.57 174.699,659.031C174.035,659.206 173.359,659.347 172.668,659.374C172.648,659.378 172.609,659.386 172.594,659.39C171.168,659.468 169.73,659.261 168.395,658.761C167.129,658.277 165.961,657.542 164.988,656.601C163.562,655.261 162.551,653.488 162.105,651.581C161.945,650.855 161.84,650.113 161.855,649.37C161.848,648.89 161.867,648.406 161.953,647.929L161.914,647.984L161.992,647.8L161.949,647.863C161.953,647.835 161.961,647.781 161.969,647.757C162.219,646.191 162.84,644.687 163.781,643.409C164.68,642.163 165.875,641.128 167.238,640.409C169.762,639.05 172.879,638.866 175.551,639.898C177.258,640.55 178.785,641.679 179.91,643.124C180.848,644.327 181.535,645.738 181.828,647.238C183.035,647.241 184.234,647.234 185.441,647.238C185.422,647.14 185.406,647.042 185.391,646.945C185.324,646.613 185.246,646.284 185.168,645.956C185.113,645.812 185.074,645.659 185.031,645.507C184.953,645.273 184.883,645.034 184.793,644.804C184.668,644.468 184.539,644.136 184.383,643.816C184.32,643.675 184.25,643.534 184.184,643.398C184.152,643.339 184.117,643.277 184.094,643.218C182.738,640.636 180.547,638.495 177.918,637.226C177.422,636.984 176.91,636.773 176.387,636.597C176.141,636.503 175.887,636.441 175.633,636.355C175.527,636.335 175.418,636.308 175.312,636.281C174.859,636.152 174.395,636.073 173.93,635.995C173.512,635.956 173.09,635.89 172.664,635.886C172.535,635.878 172.402,635.89 172.27,635.863C172.043,635.855 171.816,635.855 171.586,635.863C171.332,635.906 171.078,635.874 170.828,635.913C170.57,635.933 170.316,635.972 170.059,635.995C169.48,636.081 168.914,636.21 168.348,636.355C167.852,636.507 167.355,636.659 166.875,636.863C166.508,637.007 166.145,637.171 165.797,637.359C165.719,637.398 165.641,637.433 165.566,637.472C162.73,638.999 160.453,641.531 159.285,644.531C159.035,645.156 158.844,645.796 158.688,646.445C158.57,646.98 158.48,647.523 158.414,648.062C158.246,649.855 158.398,651.683 158.926,653.406C159.086,653.941 159.285,654.468 159.516,654.98C160.758,657.804 163.004,660.163 165.742,661.585C165.824,661.62 165.902,661.663 165.98,661.702C166.051,661.741 166.125,661.773 166.195,661.804C166.707,662.046 167.234,662.249 167.766,662.433C168.012,662.499 168.25,662.589 168.5,662.648C168.922,662.765 169.355,662.847 169.789,662.929" style="fill:rgb(0,174,239);fill-rule:nonzero;"/>
            </g>
        </g>
    </g>
</svg>
