<?xml version="1.0" encoding="UTF-8" standalone="no"?>
<!DOCTYPE svg PUBLIC "-//W3C//DTD SVG 1.1//EN" "http://www.w3.org/Graphics/SVG/1.1/DTD/svg11.dtd">
<svg width="100%" height="100%" viewBox="0 0 298 456" version="1.1" xmlns="http://www.w3.org/2000/svg" xmlns:xlink="http://www.w3.org/1999/xlink" xml:space="preserve" xmlns:serif="http://www.serif.com/" style="fill-rule:evenodd;clip-rule:evenodd;stroke-linejoin:round;stroke-miterlimit:2;">
    <g transform="matrix(1,0,0,1,-2626.35,-2073.74)">
        <g transform="matrix(1,0,0,1,-0.00169513,0)">
            <rect x="2666.14" y="2170.43" width="217.685" height="251.133" style="fill:white;"/>
        </g>
        <g transform="matrix(1,0,0,0.839862,112.45,1041.1)">
            <path d="M2742.83,1717.9L2733.43,1717.9C2725.41,1717.9 2718.91,1710.16 2718.91,1700.62L2718.91,1675.91L2708.66,1675.91L2708.66,1700.62C2708.66,1710.16 2702.16,1717.9 2694.14,1717.9L2671.88,1717.9C2670.25,1731.14 2665.09,1743.5 2657.05,1753.07C2647.2,1764.8 2633.85,1771.38 2619.92,1771.38L2602.64,1771.38C2588.71,1771.38 2575.36,1764.8 2565.51,1753.07C2557.45,1743.48 2552.28,1731.08 2550.67,1717.9L2528.42,1717.9C2520.4,1717.9 2513.9,1710.16 2513.9,1700.62L2513.9,1309.33C2513.9,1299.79 2520.4,1292.05 2528.42,1292.05L2537.82,1292.05L2537.82,1285.64C2537.82,1280.42 2541.38,1276.18 2545.76,1276.18L2574.29,1276.18C2578.68,1276.18 2582.23,1280.42 2582.23,1285.64L2582.23,1292.05L2591.63,1292.05C2599.65,1292.05 2606.15,1299.79 2606.15,1309.33L2606.15,1337.24L2616.4,1337.24L2616.4,1309.33C2616.4,1299.79 2622.91,1292.05 2630.93,1292.05L2652.64,1292.04C2652.64,1291.56 2652.66,1291.08 2652.71,1290.61C2652.66,1291.01 2652.64,1291.48 2652.64,1292.04C2652.64,1275.46 2658.17,1259.56 2668.02,1247.84C2677.86,1236.12 2691.22,1229.53 2705.14,1229.53L2722.43,1229.53C2736.36,1229.53 2749.71,1236.12 2759.56,1247.84C2769.4,1259.56 2774.93,1275.46 2774.93,1292.04L2796.65,1292.05C2804.67,1292.05 2811.17,1299.79 2811.17,1309.33L2811.17,1700.62C2811.17,1710.16 2804.67,1717.9 2796.65,1717.9L2787.25,1717.9L2787.25,1721.48C2787.25,1726.71 2783.69,1730.95 2779.3,1730.95L2750.78,1730.95C2746.39,1730.95 2742.83,1726.71 2742.83,1721.48L2742.83,1717.9ZM2764.2,1348.73L2560.87,1348.73C2557.57,1348.73 2554.9,1351.9 2554.9,1355.83L2554.9,1413.43C2554.9,1417.35 2557.57,1420.53 2560.87,1420.53L2764.2,1420.53C2767.49,1420.53 2770.17,1417.35 2770.17,1413.43L2770.17,1355.83C2770.17,1351.9 2767.49,1348.73 2764.2,1348.73ZM2738.33,1630.31C2740.07,1630.31 2741.75,1629.49 2742.98,1628.02C2744.22,1626.55 2744.91,1624.56 2744.91,1622.48L2744.91,1592.23C2744.91,1590.15 2744.22,1588.16 2742.98,1586.69C2741.75,1585.22 2740.07,1584.39 2738.33,1584.39L2705.55,1584.39C2703.8,1584.39 2702.13,1585.22 2700.9,1586.69C2699.66,1588.16 2698.97,1590.15 2698.97,1592.23L2698.97,1622.48C2698.97,1624.56 2699.66,1626.55 2700.9,1628.02C2702.13,1629.49 2703.8,1630.31 2705.55,1630.31L2738.33,1630.31ZM2606.15,1675.91L2606.15,1700.62C2606.15,1710.16 2599.65,1717.9 2591.63,1717.9L2570.81,1717.9C2572.2,1724.86 2575.19,1731.28 2579.5,1736.41C2585.64,1743.72 2593.96,1747.82 2602.64,1747.82L2619.92,1747.82C2628.6,1747.82 2636.92,1743.72 2643.06,1736.41C2647.37,1731.28 2650.35,1724.86 2651.75,1717.9L2630.93,1717.9C2622.91,1717.9 2616.4,1710.16 2616.4,1700.62L2616.4,1675.91L2606.15,1675.91ZM2678.92,1518.87L2646.14,1518.87C2644.4,1518.87 2642.72,1519.7 2641.49,1521.17C2640.26,1522.64 2639.56,1524.63 2639.56,1526.71L2639.56,1556.96C2639.56,1559.04 2640.26,1561.03 2641.49,1562.5C2642.72,1563.97 2644.4,1564.79 2646.14,1564.79L2678.92,1564.79C2680.67,1564.79 2682.34,1563.97 2683.58,1562.5C2684.81,1561.03 2685.5,1559.04 2685.5,1556.96L2685.5,1526.71C2685.5,1524.63 2684.81,1522.64 2683.58,1521.17C2682.34,1519.7 2680.67,1518.87 2678.92,1518.87ZM2619.52,1499.27C2621.26,1499.27 2622.94,1498.45 2624.17,1496.98C2625.4,1495.51 2626.1,1493.52 2626.1,1491.44L2626.1,1461.19C2626.1,1459.11 2625.4,1457.12 2624.17,1455.65C2622.94,1454.18 2621.26,1453.35 2619.52,1453.35L2586.74,1453.35C2584.99,1453.35 2583.32,1454.18 2582.08,1455.65C2580.85,1457.12 2580.16,1459.11 2580.16,1461.19L2580.16,1491.44C2580.16,1493.52 2580.85,1495.51 2582.08,1496.98C2583.32,1498.45 2584.99,1499.27 2586.74,1499.27L2619.52,1499.27ZM2718.91,1337.24L2718.91,1309.33C2718.91,1299.79 2725.41,1292.05 2733.43,1292.05L2755.15,1292.04C2755.15,1281.71 2751.7,1271.8 2745.56,1264.5C2739.43,1257.19 2731.11,1253.09 2722.43,1253.09L2705.14,1253.09C2696.47,1253.09 2688.14,1257.19 2682.01,1264.5C2675.87,1271.8 2672.43,1281.71 2672.43,1292.04L2694.14,1292.05C2702.16,1292.05 2708.66,1299.79 2708.66,1309.33L2708.66,1337.24L2718.91,1337.24ZM2678.92,1584.39L2646.14,1584.39C2644.4,1584.39 2642.72,1585.22 2641.49,1586.69C2640.26,1588.16 2639.56,1590.15 2639.56,1592.23L2639.56,1622.48C2639.56,1624.56 2640.26,1626.55 2641.49,1628.02C2642.72,1629.49 2644.4,1630.31 2646.14,1630.31L2678.92,1630.31C2680.67,1630.31 2682.34,1629.49 2683.58,1628.02C2684.81,1626.55 2685.5,1624.56 2685.5,1622.48L2685.5,1592.23C2685.5,1590.15 2684.81,1588.16 2683.58,1586.69C2682.34,1585.22 2680.67,1584.39 2678.92,1584.39ZM2738.33,1564.79C2740.07,1564.79 2741.75,1563.97 2742.98,1562.5C2744.22,1561.03 2744.91,1559.04 2744.91,1556.96L2744.91,1526.71C2744.91,1524.63 2744.22,1522.64 2742.98,1521.17C2741.75,1519.7 2740.07,1518.87 2738.33,1518.87L2705.55,1518.87C2703.8,1518.87 2702.13,1519.7 2700.9,1521.17C2699.66,1522.64 2698.97,1524.63 2698.97,1526.71L2698.97,1556.96C2698.97,1559.04 2699.66,1561.03 2700.9,1562.5C2702.13,1563.97 2703.8,1564.79 2705.55,1564.79L2738.33,1564.79ZM2678.92,1453.35L2646.14,1453.35C2644.4,1453.35 2642.72,1454.18 2641.49,1455.65C2640.26,1457.12 2639.56,1459.11 2639.56,1461.19L2639.56,1491.44C2639.56,1493.52 2640.26,1495.51 2641.49,1496.98C2642.72,1498.45 2644.4,1499.27 2646.14,1499.27L2678.92,1499.27C2680.67,1499.27 2682.34,1498.45 2683.58,1496.98C2684.81,1495.51 2685.5,1493.52 2685.5,1491.44L2685.5,1461.19C2685.5,1459.11 2684.81,1457.12 2683.58,1455.65C2682.34,1454.18 2680.67,1453.35 2678.92,1453.35ZM2619.52,1630.31C2621.26,1630.31 2622.94,1629.49 2624.17,1628.02C2625.4,1626.55 2626.1,1624.56 2626.1,1622.48L2626.1,1592.23C2626.1,1590.15 2625.4,1588.16 2624.17,1586.69C2622.94,1585.22 2621.26,1584.39 2619.52,1584.39L2586.74,1584.39C2584.99,1584.39 2583.32,1585.22 2582.08,1586.69C2580.85,1588.16 2580.16,1590.15 2580.16,1592.23L2580.16,1622.48C2580.16,1624.56 2580.85,1626.55 2582.08,1628.02C2583.32,1629.49 2584.99,1630.31 2586.74,1630.31L2619.52,1630.31ZM2619.52,1564.79C2621.26,1564.79 2622.94,1563.97 2624.17,1562.5C2625.4,1561.03 2626.1,1559.04 2626.1,1556.96L2626.1,1526.71C2626.1,1524.63 2625.4,1522.64 2624.17,1521.17C2622.94,1519.7 2621.26,1518.87 2619.52,1518.87L2586.74,1518.87C2584.99,1518.87 2583.32,1519.7 2582.08,1521.17C2580.85,1522.64 2580.16,1524.63 2580.16,1526.71L2580.16,1556.96C2580.16,1559.04 2580.85,1561.03 2582.08,1562.5C2583.32,1563.97 2584.99,1564.79 2586.74,1564.79L2619.52,1564.79ZM2738.33,1499.27C2740.07,1499.27 2741.75,1498.45 2742.98,1496.98C2744.22,1495.51 2744.91,1493.52 2744.91,1491.44L2744.91,1461.19C2744.91,1459.11 2744.22,1457.12 2742.98,1455.65C2741.75,1454.18 2740.07,1453.35 2738.33,1453.35L2705.55,1453.35C2703.8,1453.35 2702.13,1454.18 2700.9,1455.65C2699.66,1457.12 2698.97,1459.11 2698.97,1461.19L2698.97,1491.44C2698.97,1493.52 2699.66,1495.51 2700.9,1496.98C2702.13,1498.45 2703.8,1499.27 2705.55,1499.27L2738.33,1499.27Z" fill="#22c55e"/>
        </g>
    </g>
</svg>
