<svg width="20" height="20" viewBox="0 0 20 20" fill="none" xmlns="http://www.w3.org/2000/svg">
<g clip-path="url(#clip0_1173_302)">
<path d="M2 2.90381C2 2.27081 2.526 1.75781 3.175 1.75781H16.825C17.474 1.75781 18 2.27081 18 2.90381V16.6118C18 17.2448 17.474 17.7578 16.825 17.7578H3.175C2.526 17.7578 2 17.2448 2 16.6118V2.90381ZM6.943 15.1518V7.92681H4.542V15.1518H6.943ZM5.743 6.93981C6.58 6.93981 7.101 6.38581 7.101 5.69181C7.086 4.98281 6.581 4.44381 5.759 4.44381C4.937 4.44381 4.4 4.98381 4.4 5.69181C4.4 6.38581 4.921 6.93981 5.727 6.93981H5.743ZM10.651 15.1518V11.1168C10.651 10.9008 10.667 10.6848 10.731 10.5308C10.904 10.0998 11.299 9.65281 11.963 9.65281C12.832 9.65281 13.179 10.3148 13.179 11.2868V15.1518H15.58V11.0078C15.58 8.78781 14.396 7.75581 12.816 7.75581C11.542 7.75581 10.971 8.45581 10.651 8.94881V8.97381H10.635L10.651 8.94881V7.92681H8.251C8.281 8.60481 8.251 15.1518 8.251 15.1518H10.651Z" fill="white"/>
</g>
<defs>
<clipPath id="clip0_1173_302">
<rect width="16" height="16" fill="white" transform="translate(2 1.75781)"/>
</clipPath>
</defs>
</svg>
