<svg width="20" height="20" viewBox="0 0 20 20" fill="none" xmlns="http://www.w3.org/2000/svg">
<path fill-rule="evenodd" clip-rule="evenodd" d="M3.7 17C2.98392 17 2.29716 16.7234 1.79081 16.2312C1.28446 15.7389 1 15.0712 1 14.375V5.625C1 4.92881 1.28446 4.26113 1.79081 3.76884C2.29716 3.27656 2.98392 3 3.7 3H16.3C17.0161 3 17.7028 3.27656 18.2092 3.76884C18.7155 4.26113 19 4.92881 19 5.625V14.375C19 15.0712 18.7155 15.7389 18.2092 16.2312C17.7028 16.7234 17.0161 17 16.3 17H3.7ZM6.0625 6.6925C5.97082 6.61639 5.86435 6.55896 5.7494 6.52363C5.63446 6.48829 5.51338 6.47577 5.39336 6.4868C5.27334 6.49783 5.15682 6.53219 5.05072 6.58785C4.94463 6.6435 4.85111 6.71931 4.77573 6.81077C4.70034 6.90224 4.64463 7.0075 4.61189 7.1203C4.57915 7.2331 4.57006 7.35115 4.58515 7.46743C4.60024 7.58372 4.6392 7.69587 4.69973 7.79723C4.76026 7.89859 4.84111 7.9871 4.9375 8.0575L8.3125 10.6834C8.79138 11.0561 9.38654 11.2592 10 11.2592C10.6135 11.2592 11.2086 11.0561 11.6875 10.6834L15.0625 8.05838C15.1548 7.98656 15.2317 7.89777 15.2887 7.79708C15.3457 7.69638 15.3817 7.58576 15.3948 7.47152C15.4078 7.35728 15.3976 7.24166 15.3647 7.13127C15.3317 7.02088 15.2768 6.91787 15.2029 6.82812C15.129 6.73838 15.0377 6.66366 14.9341 6.60824C14.8306 6.55281 14.7168 6.51776 14.5993 6.50508C14.4818 6.49241 14.3629 6.50236 14.2493 6.53436C14.1358 6.56637 14.0298 6.61981 13.9375 6.69162L10.5625 9.31662C10.4029 9.44088 10.2045 9.50858 10 9.50858C9.79551 9.50858 9.59713 9.44088 9.4375 9.31662L6.0625 6.6925Z" fill="white"/>
</svg>
