<?xml version="1.0" encoding="UTF-8" standalone="no"?>
<!DOCTYPE svg PUBLIC "-//W3C//DTD SVG 1.1//EN" "http://www.w3.org/Graphics/SVG/1.1/DTD/svg11.dtd">
<svg width="100%" height="100%" viewBox="0 0 36 53" version="1.1" xmlns="http://www.w3.org/2000/svg" xmlns:xlink="http://www.w3.org/1999/xlink" xml:space="preserve" xmlns:serif="http://www.serif.com/" style="fill-rule:evenodd;clip-rule:evenodd;stroke-linejoin:round;stroke-miterlimit:2;">
    <rect id="Artboard1" x="0" y="0" width="36" height="53" style="fill:none;"/>
    <clipPath id="_clip1">
        <rect id="Artboard11" serif:id="Artboard1" x="0" y="0" width="36" height="53"/>
    </clipPath>
    <g clip-path="url(#_clip1)">
        <g transform="matrix(2.34054,0,0,3.14768,-15304,-8074.48)">
            <path d="M6542.16,2580.49L6542.16,2581.75L6540.41,2581.75L6540.41,2581.77L6538.65,2581.77L6538.65,2566.55L6542.07,2566.55L6542.07,2567.8L6542.38,2567.8L6542.38,2567.81L6543.74,2567.81L6543.74,2569.08L6545.4,2569.08L6545.4,2570.35L6547.07,2570.35L6547.07,2570.48L6547.08,2570.48L6547.08,2571.61L6548.73,2571.61L6548.73,2572.88L6550.4,2572.88L6550.4,2574.14L6552.06,2574.14L6552.06,2575.4L6552.28,2575.4L6552.28,2575.41L6553.72,2575.41L6553.72,2577.95L6545.49,2577.95L6545.49,2579.22L6543.82,2579.22L6543.82,2580.49L6542.16,2580.49Z" style="fill-opacity:0.44;"/>
        </g>
        <g transform="matrix(2.34054,0,0,3.14768,-15304,-8078.67)">
            <path d="M6542.38,2579.22L6542.38,2580.49L6540.4,2580.49L6540.4,2567.8L6542.38,2567.8L6542.38,2569.08L6543.83,2569.08L6543.83,2570.35L6545.51,2570.35L6545.51,2570.48L6547.08,2570.48L6547.08,2571.86L6548.73,2571.86L6548.73,2573.35L6550.4,2573.35L6550.4,2575.4L6552.28,2575.4L6552.28,2577.69L6548.51,2577.69L6548.51,2576.95L6547.08,2576.95L6547.08,2577.85L6545.51,2577.85L6545.51,2577.95L6543.83,2577.95L6543.83,2579.22L6542.38,2579.22Z" style="fill:rgb(29,141,250);"/>
        </g>
        <g transform="matrix(2.08108,0,0,3.77954,-13611.1,-9705.11)">
            <path d="M6542.38,2580.47L6542.38,2580.49L6540.4,2580.49L6540.4,2567.8L6544.25,2567.8L6544.25,2568.86L6542.38,2568.86L6542.38,2579.41L6544.34,2579.41L6544.34,2580.47L6542.38,2580.47ZM6544.25,2568.86L6546.12,2568.86L6546.12,2569.91L6544.25,2569.91L6544.25,2568.86ZM6546.12,2569.91L6547.99,2569.91L6547.99,2570.97L6546.12,2570.97L6546.12,2569.91ZM6547.99,2570.97L6549.86,2570.97L6549.86,2572.02L6547.99,2572.02L6547.99,2570.97ZM6549.86,2572.02L6551.74,2572.02L6551.74,2573.08L6549.86,2573.08L6549.86,2572.02ZM6551.74,2573.08L6553.61,2573.08L6553.61,2574.13L6551.74,2574.13L6551.74,2573.08ZM6553.61,2574.13L6555.48,2574.13L6555.48,2575.19L6553.61,2575.19L6553.61,2574.13ZM6555.48,2575.19L6557.35,2575.19L6557.35,2577.3L6548.09,2577.3L6548.09,2576.25L6555.48,2576.25L6555.48,2575.19ZM6546.21,2578.36L6546.21,2577.3L6548.09,2577.3L6548.09,2578.36L6546.21,2578.36ZM6544.34,2579.41L6544.34,2578.36L6546.21,2578.36L6546.21,2579.41L6544.34,2579.41Z" style="fill:rgb(2,0,0);"/>
        </g>
    </g>
</svg>
