<?xml version="1.0" encoding="UTF-8" standalone="no"?>
<!DOCTYPE svg PUBLIC "-//W3C//DTD SVG 1.1//EN" "http://www.w3.org/Graphics/SVG/1.1/DTD/svg11.dtd">
<svg width="100%" height="100%" viewBox="0 0 110 110" version="1.1" xmlns="http://www.w3.org/2000/svg" xmlns:xlink="http://www.w3.org/1999/xlink" xml:space="preserve" xmlns:serif="http://www.serif.com/" style="fill-rule:evenodd;clip-rule:evenodd;stroke-linejoin:round;stroke-miterlimit:2;">
    <g transform="matrix(1,0,0,1,-5423.621357,-1366.475171)">
        <g transform="matrix(1,0,0,1,-0.112855,-0.841485)">
            <g transform="matrix(1.119048,0,0,2.965517,-545.023718,-2740.802263)">
                <path d="M5352.6,1396.22L5333.784,1396.22L5333.784,1392.396L5352.6,1392.396L5352.6,1385.296L5362.734,1385.296L5362.734,1392.396L5402.974,1392.396L5402.974,1385.296L5413.108,1385.296L5413.108,1392.396L5431.925,1392.396L5431.925,1396.22L5413.108,1396.22L5413.108,1411.405L5431.925,1411.405L5431.925,1415.229L5413.108,1415.229L5413.108,1422.33L5402.974,1422.33L5402.974,1415.229L5362.734,1415.229L5362.734,1422.33L5352.6,1422.33L5352.6,1415.229L5333.784,1415.229L5333.784,1411.405L5352.6,1411.405L5352.6,1396.22ZM5402.974,1396.22L5362.734,1396.22L5362.734,1411.405L5402.974,1411.405L5402.974,1396.22Z" style="fill:rgb(149,149,149);"/>
            </g>
        </g>
    </g>
</svg>
